<svg width="790" height="1050" viewBox="0 0 790 1050" fill="none" xmlns="http://www.w3.org/2000/svg">
<g clip-path="url(#clip0_101_4)">
<path d="M360.49 1008.03V889.28H337.39V931.27C336.16 929.48 334.65 927.97 332.86 926.73C331.07 925.5 329.14 924.52 327.06 923.79C325.75 923.28 324.4 922.88 323.03 922.56L323.5 921.61H314.55C308.22 921.61 302.26 922.81 296.66 925.22C291.12 927.63 286.25 930.96 282.05 935.21C277.91 939.46 274.63 944.5 272.22 950.33C269.81 956.15 268.61 962.45 268.61 969.23C268.61 976.01 269.81 982.39 272.22 988.21C274.63 993.98 277.9 998.99 282.05 1003.24C286.25 1007.44 291.12 1010.74 296.66 1013.15C302.26 1015.5 308.22 1016.68 314.55 1016.68H323.5L323.33 1015.53C326.11 1014.81 328.81 1013.85 331.43 1012.65C334.12 1011.36 336.67 1009.88 339.07 1008.2C341.53 1006.46 343.86 1004.61 346.04 1002.65L354.94 1015H363.89L364.87 1010.89L362.21 1006.78L360.48 1008.02L360.49 1008.03ZM335.55 978.39C334.37 981.3 332.75 983.91 330.68 986.2C328.61 988.44 326.17 990.26 323.37 991.66C320.63 993 317.69 993.68 314.55 993.68C311.41 993.68 308.45 993.04 305.65 991.75C302.91 990.46 300.5 988.7 298.43 986.46C296.41 984.22 294.82 981.62 293.64 978.65C292.47 975.68 291.88 972.55 291.88 969.24C291.88 965.43 292.47 962.02 293.64 958.99C294.82 955.97 296.41 953.42 298.43 951.35C300.5 949.22 302.91 947.6 305.65 946.48C308.45 945.36 311.42 944.8 314.55 944.8C317.68 944.8 320.63 945.5 323.37 946.9C326.17 948.24 328.61 950.06 330.68 952.36C332.75 954.6 334.38 957.2 335.55 960.17C336.78 963.08 337.4 966.1 337.4 969.24C337.4 972.38 336.78 975.43 335.55 978.39Z" fill="#1686B8"/>
<path d="M678.94 925.05V974.77C678.94 977.18 678.49 979.53 677.6 981.82C676.71 984.06 675.47 986.08 673.91 987.87C672.34 989.66 670.49 991.12 668.37 992.24C666.3 993.3 664.09 993.84 661.73 993.84C659.37 993.84 657.06 993.45 654.93 992.66C652.86 991.88 651.04 990.7 649.47 989.13C647.9 987.51 646.64 985.52 645.69 983.17C644.79 980.76 644.35 977.96 644.35 974.77V925.05H621.51V974.77C621.51 981.21 622.55 987.03 624.62 992.24C626.75 997.39 629.63 1001.79 633.27 1005.43C636.97 1009.01 641.25 1011.78 646.12 1013.74C650.99 1015.7 656.2 1016.68 661.74 1016.68C664.37 1016.68 666.97 1016.15 669.55 1015.08C672.18 1014.02 674.76 1012.96 677.28 1011.89C676.44 1013.96 675.35 1015.87 674.01 1017.6C672.67 1019.4 671.1 1020.93 669.31 1022.22C667.57 1023.51 665.67 1024.52 663.6 1025.25C661.53 1025.97 659.37 1026.34 657.13 1026.34L653.36 1026.29L653.32 1026.17H644.37V1049.27L656.13 1049.43C662.46 1049.43 668.39 1048.23 673.94 1045.82C679.48 1043.41 684.33 1040.14 688.47 1036C692.67 1031.85 695.97 1027.01 698.38 1021.47C700.79 1015.92 702.02 1009.99 702.07 1003.66V925.05H678.97H678.94Z" fill="#1686B8"/>
<path d="M241.43 934.71C237.29 930.51 232.42 927.29 226.82 925.05C223.95 923.86 220.97 922.99 217.88 922.41C217.88 921.92 217.88 921.6 217.88 921.6H208.93C202.6 921.6 196.64 922.8 191.04 925.21C185.5 927.62 180.63 930.95 176.43 935.2C172.29 939.4 169.01 944.41 166.6 950.23C164.19 956.05 162.99 962.38 162.99 969.21C162.99 976.04 164.19 982.2 166.6 988.02C169.01 993.79 172.28 998.8 176.43 1003.05C180.63 1007.25 185.5 1010.58 191.04 1013.05C196.64 1015.46 202.6 1016.66 208.93 1016.66H217.88L217.79 1015.83C220.91 1015.23 223.92 1014.31 226.82 1013.05C232.42 1010.58 237.29 1007.25 241.43 1003.05C245.57 998.8 248.85 993.79 251.26 988.02C253.67 982.2 254.87 975.93 254.87 969.21C254.87 962.04 253.67 955.55 251.26 949.73C248.85 943.85 245.58 938.84 241.43 934.7V934.71ZM229.92 979.22C228.74 982.24 227.12 984.82 225.05 986.95C222.98 989.08 220.54 990.73 217.74 991.91C215 993.09 212.06 993.67 208.92 993.67C205.78 993.67 202.82 993.05 200.02 991.82C197.28 990.53 194.87 988.8 192.8 986.61C190.78 984.43 189.19 981.85 188.01 978.88C186.83 975.91 186.25 972.69 186.25 969.22C186.25 965.52 186.84 962.19 188.01 959.23C189.19 956.21 190.78 953.63 192.8 951.5C194.87 949.32 197.28 947.66 200.02 946.54C202.82 945.36 205.79 944.78 208.92 944.78C212.05 944.78 215 945.37 217.74 946.54C220.54 947.66 222.97 949.31 225.05 951.5C227.12 953.63 228.75 956.2 229.92 959.23C231.15 962.2 231.77 965.53 231.77 969.22C231.77 972.91 231.15 976.19 229.92 979.21V979.22Z" fill="#1686B8"/>
<path d="M134.71 896.75C130.46 895.17 126.11 894.08 121.68 893.47L122.08 892.88H111.12L111.06 892.91C106.08 893.07 101.26 893.81 96.58 895.14C91.32 896.6 86.36 898.7 81.72 901.44C77.13 904.13 72.93 907.37 69.12 911.18C65.31 914.99 62.04 919.21 59.29 923.86C56.6 928.45 54.5 933.41 52.99 938.72C51.53 944.04 50.81 949.55 50.81 955.26C50.81 960.97 51.54 966.49 52.99 971.8C54.5 977.06 56.6 982.02 59.29 986.67C62.03 991.26 65.31 995.46 69.12 999.27C72.93 1003.07 77.13 1006.36 81.72 1009.1C86.37 1011.79 91.32 1013.86 96.58 1015.32C101.9 1016.83 107.41 1017.58 113.12 1017.58C120.57 1017.58 127.76 1016.3 134.7 1013.72C141.64 1011.14 147.91 1007.45 153.51 1002.63L145.36 989.22L146.56 988.81L149.7 981.64H140.75C137.22 985.45 133.05 988.39 128.24 990.46C123.42 992.48 118.39 993.48 113.12 993.48C107.85 993.48 102.82 992.47 98.17 990.46C93.52 988.44 89.46 985.7 85.99 982.23C82.52 978.76 79.78 974.73 77.76 970.14C75.74 965.49 74.74 960.54 74.74 955.28C74.74 950.02 75.75 945.06 77.76 940.42C79.78 935.72 82.52 931.66 85.99 928.24C89.46 924.77 93.52 922.02 98.17 920.01C102.82 917.99 107.8 916.99 113.12 916.99C118.44 916.99 123.42 918.03 128.24 920.1C133.06 922.11 137.23 925.03 140.75 928.83H149.7L148.56 920.74H145.67L153.52 907.83C147.92 902.96 141.65 899.26 134.71 896.74V896.75Z" fill="#1686B8"/>
<path d="M470.99 889.28H447.9V931.27C446.67 929.48 445.16 927.97 443.36 926.73C441.57 925.5 439.64 924.52 437.57 923.79C436.51 923.38 435.42 923.03 434.31 922.74C434.13 922.06 434.01 921.6 434.01 921.6H425.06C418.73 921.6 412.77 922.8 407.17 925.21C401.63 927.62 396.76 930.95 392.56 935.2C388.42 939.45 385.14 944.49 382.73 950.32C380.32 956.14 379.12 962.44 379.12 969.22C379.12 976 380.32 982.38 382.73 988.2C385.14 993.97 388.41 998.98 392.56 1003.23C396.76 1007.43 401.63 1010.73 407.17 1013.14C412.77 1015.49 418.73 1016.67 425.06 1016.67H434.01L433.42 1015.63C433.49 1015.61 433.55 1015.6 433.62 1015.58C436.48 1014.85 439.25 1013.87 441.94 1012.64C444.63 1011.35 447.17 1009.87 449.58 1008.19C452.04 1006.45 454.37 1004.6 456.55 1002.64L465.45 1014.99H474.4L475.51 1002.79H470.99V889.27V889.28ZM446.05 978.39C444.87 981.3 443.25 983.91 441.18 986.2C439.11 988.44 436.67 990.26 433.87 991.66C431.13 993 428.19 993.68 425.05 993.68C421.91 993.68 418.95 993.04 416.15 991.75C413.41 990.46 411 988.7 408.93 986.46C406.91 984.22 405.32 981.62 404.14 978.65C402.96 975.68 402.38 972.55 402.38 969.24C402.38 965.43 402.97 962.02 404.14 958.99C405.32 955.97 406.91 953.42 408.93 951.35C411 949.22 413.41 947.6 416.15 946.48C418.95 945.36 421.92 944.8 425.05 944.8C428.18 944.8 431.12 945.5 433.87 946.9C436.67 948.24 439.1 950.06 441.18 952.36C443.25 954.6 444.87 957.2 446.05 960.17C447.28 963.08 447.9 966.1 447.9 969.24C447.9 972.38 447.28 975.43 446.05 978.39Z" fill="#1686B8"/>
<path d="M517.66 925.05H494.56V1015H517.66V925.05Z" fill="#1686B8"/>
<path d="M517.07 889.86C516.47 889.26 515.8 888.72 515.11 888.23V885.33H506.16C504.03 885.33 502.02 885.75 500.11 886.59C498.26 887.37 496.64 888.47 495.24 889.86C493.9 891.2 492.81 892.83 491.97 894.73C491.19 896.58 490.79 898.54 490.79 900.61C490.79 902.68 491.18 904.73 491.97 906.57C492.81 908.42 493.9 910.04 495.24 911.44C496.64 912.78 498.26 913.88 500.11 914.72C502.01 915.5 504.03 915.89 506.16 915.89H515.11V913.03C515.81 912.54 516.47 912.02 517.07 911.44C518.47 910.04 519.56 908.42 520.35 906.57C521.19 904.72 521.61 902.74 521.61 900.61C521.61 898.48 521.19 896.58 520.35 894.73C519.57 892.83 518.47 891.2 517.07 889.86Z" fill="#1686B8"/>
<path d="M568.95 889.28H546.11V925.23H534.94V948.07H546.11V974.78C546.11 980.32 547.15 985.53 549.22 990.4C551.35 995.27 554.23 999.55 557.87 1003.25C561.57 1006.89 565.85 1009.77 570.72 1011.9C575.59 1013.97 580.8 1015.01 586.34 1015.01H603.73V992.17H586.34C583.93 992.17 581.67 991.72 579.54 990.83C577.41 989.88 575.56 988.62 574 987.05C572.43 985.48 571.2 983.66 570.3 981.59C569.4 979.46 568.96 977.2 568.96 974.79V948.08H603.73V925.24H568.96V889.29L568.95 889.28Z" fill="#1686B8"/>
<path d="M162.48 1002.65C156.88 1007.47 150.61 1011.16 143.67 1013.74C136.73 1016.32 129.53 1017.6 122.09 1017.6C116.38 1017.6 110.86 1016.85 105.54 1015.34C100.28 1013.88 95.32 1011.81 90.68 1009.12C86.09 1006.38 81.89 1003.1 78.08 999.29C74.27 995.48 71 991.28 68.25 986.69C65.56 982.04 63.46 977.09 61.95 971.82C60.49 966.5 59.77 960.99 59.77 955.28C59.77 949.57 60.5 944.05 61.95 938.74C63.46 933.42 65.56 928.47 68.25 923.88C70.99 919.23 74.27 915.01 78.08 911.2C81.89 907.39 86.09 904.15 90.68 901.46C95.33 898.72 100.28 896.62 105.54 895.16C110.86 893.65 116.37 892.89 122.09 892.89C129.54 892.89 136.73 894.18 143.67 896.75C150.61 899.27 156.88 902.97 162.48 907.84L149.71 928.84C146.18 925.03 142.01 922.12 137.2 920.11C132.38 918.04 127.35 917 122.08 917C116.81 917 111.78 918.01 107.13 920.02C102.48 922.04 98.42 924.78 94.95 928.25C91.48 931.67 88.74 935.72 86.72 940.43C84.71 945.08 83.7 950.03 83.7 955.29C83.7 960.55 84.71 965.51 86.72 970.15C88.74 974.74 91.48 978.77 94.95 982.24C98.42 985.71 102.48 988.46 107.13 990.47C111.78 992.49 116.76 993.49 122.08 993.49C127.4 993.49 132.38 992.48 137.2 990.47C142.02 988.4 146.19 985.46 149.71 981.65L162.48 1002.64V1002.65ZM263.82 969.23C263.82 975.95 262.62 982.22 260.21 988.04C257.8 993.81 254.53 998.82 250.38 1003.07C246.24 1007.27 241.37 1010.6 235.77 1013.07C230.23 1015.48 224.26 1016.68 217.88 1016.68C211.5 1016.68 205.59 1015.48 199.99 1013.07C194.45 1010.6 189.58 1007.27 185.38 1003.07C181.24 998.82 177.96 993.81 175.55 988.04C173.14 982.22 171.94 975.95 171.94 969.23C171.94 962.51 173.14 956.07 175.55 950.25C177.96 944.43 181.23 939.42 185.38 935.22C189.58 930.96 194.45 927.63 199.99 925.23C205.59 922.82 211.55 921.62 217.88 921.62C224.21 921.62 230.23 922.77 235.77 925.06C241.37 927.3 246.24 930.52 250.38 934.72C254.52 938.86 257.8 943.87 260.21 949.75C262.62 955.57 263.82 962.07 263.82 969.23ZM240.72 969.23C240.72 965.53 240.1 962.2 238.87 959.24C237.69 956.22 236.07 953.64 234 951.51C231.93 949.33 229.49 947.67 226.69 946.55C223.95 945.37 221.01 944.79 217.87 944.79C214.73 944.79 211.77 945.38 208.97 946.55C206.23 947.67 203.82 949.32 201.75 951.51C199.73 953.64 198.14 956.21 196.96 959.24C195.78 962.21 195.2 965.54 195.2 969.23C195.2 972.7 195.79 975.92 196.96 978.89C198.14 981.86 199.73 984.43 201.75 986.62C203.82 988.8 206.23 990.54 208.97 991.83C211.77 993.06 214.74 993.68 217.87 993.68C221 993.68 223.95 993.09 226.69 991.92C229.49 990.75 231.92 989.09 234 986.96C236.07 984.83 237.7 982.26 238.87 979.23C240.1 976.21 240.72 972.87 240.72 969.24V969.23ZM369.44 1015H363.9L355 1002.65C352.82 1004.61 350.49 1006.46 348.03 1008.2C345.62 1009.88 343.07 1011.36 340.39 1012.65C337.7 1013.88 334.93 1014.86 332.08 1015.59C329.28 1016.32 326.43 1016.68 323.51 1016.68C317.18 1016.68 311.22 1015.5 305.62 1013.15C300.08 1010.74 295.21 1007.44 291.01 1003.24C286.87 998.99 283.59 993.98 281.18 988.21C278.77 982.39 277.57 976.06 277.57 969.23C277.57 962.4 278.77 956.16 281.18 950.33C283.59 944.51 286.86 939.47 291.01 935.21C295.21 930.95 300.08 927.62 305.62 925.22C311.22 922.81 317.18 921.61 323.51 921.61C325.53 921.61 327.6 921.78 329.72 922.11C331.9 922.45 334 923.01 336.02 923.79C338.09 924.52 340.02 925.5 341.82 926.73C343.61 927.96 345.12 929.47 346.36 931.27V889.28H369.46V1015H369.44ZM346.34 969.23C346.34 966.09 345.72 963.07 344.49 960.16C343.31 957.19 341.69 954.59 339.62 952.35C337.55 950.05 335.11 948.23 332.31 946.89C329.57 945.49 326.63 944.79 323.49 944.79C320.35 944.79 317.39 945.35 314.59 946.47C311.85 947.59 309.44 949.21 307.37 951.34C305.35 953.41 303.76 955.96 302.58 958.98C301.41 962 300.82 965.42 300.82 969.23C300.82 972.53 301.41 975.67 302.58 978.64C303.76 981.61 305.35 984.21 307.37 986.45C309.44 988.69 311.85 990.45 314.59 991.74C317.39 993.03 320.36 993.67 323.49 993.67C326.62 993.67 329.56 993 332.31 991.65C335.11 990.25 337.55 988.43 339.62 986.19C341.69 983.9 343.32 981.29 344.49 978.38C345.72 975.41 346.34 972.36 346.34 969.23ZM479.93 1015H474.39L465.49 1002.65C463.31 1004.61 460.98 1006.46 458.52 1008.2C456.11 1009.88 453.56 1011.36 450.88 1012.65C448.19 1013.88 445.42 1014.86 442.57 1015.59C439.77 1016.32 436.92 1016.68 434 1016.68C427.67 1016.68 421.71 1015.5 416.11 1013.15C410.57 1010.74 405.7 1007.44 401.5 1003.24C397.36 998.99 394.08 993.98 391.67 988.21C389.26 982.39 388.06 976.06 388.06 969.23C388.06 962.4 389.26 956.16 391.67 950.33C394.08 944.51 397.35 939.47 401.5 935.21C405.7 930.95 410.57 927.62 416.11 925.22C421.71 922.81 427.67 921.61 434 921.61C436.02 921.61 438.09 921.78 440.21 922.11C442.39 922.45 444.49 923.01 446.51 923.79C448.58 924.52 450.51 925.5 452.3 926.73C454.09 927.96 455.6 929.47 456.84 931.27V889.28H479.94V1015H479.93ZM456.83 969.23C456.83 966.09 456.21 963.07 454.98 960.16C453.8 957.19 452.18 954.59 450.11 952.35C448.04 950.05 445.6 948.23 442.8 946.89C440.06 945.49 437.12 944.79 433.98 944.79C430.84 944.79 427.88 945.35 425.08 946.47C422.34 947.59 419.93 949.21 417.86 951.34C415.84 953.41 414.25 955.96 413.07 958.98C411.89 962 411.31 965.42 411.31 969.23C411.31 972.53 411.9 975.67 413.07 978.64C414.25 981.61 415.84 984.21 417.86 986.45C419.93 988.69 422.34 990.45 425.08 991.74C427.88 993.03 430.85 993.67 433.98 993.67C437.11 993.67 440.05 993 442.8 991.65C445.6 990.25 448.03 988.43 450.11 986.19C452.18 983.9 453.8 981.29 454.98 978.38C456.21 975.41 456.83 972.36 456.83 969.23ZM530.54 900.61C530.54 902.74 530.12 904.73 529.28 906.57C528.5 908.42 527.4 910.04 526 911.44C524.6 912.78 522.95 913.88 521.04 914.72C519.19 915.5 517.21 915.89 515.08 915.89C512.95 915.89 510.94 915.5 509.03 914.72C507.18 913.88 505.56 912.79 504.16 911.44C502.82 910.04 501.73 908.42 500.89 906.57C500.11 904.72 499.71 902.74 499.71 900.61C499.71 898.48 500.1 896.58 500.89 894.73C501.73 892.83 502.82 891.2 504.16 889.86C505.56 888.46 507.18 887.37 509.03 886.59C510.93 885.75 512.95 885.33 515.08 885.33C517.21 885.33 519.19 885.75 521.04 886.59C522.94 887.37 524.6 888.47 526 889.86C527.4 891.2 528.49 892.83 529.28 894.73C530.12 896.58 530.54 898.54 530.54 900.61ZM526.59 1015H503.49V925.05H526.59V1015ZM595.26 1015C589.72 1015 584.51 1013.96 579.64 1011.89C574.77 1009.76 570.49 1006.88 566.79 1003.24C563.15 999.55 560.27 995.26 558.14 990.39C556.07 985.52 555.03 980.31 555.03 974.77V948.06H543.86V925.22H555.03V889.27H577.87V925.22H612.64V948.06H577.87V974.77C577.87 977.18 578.32 979.45 579.21 981.57C580.11 983.64 581.34 985.46 582.91 987.03C584.48 988.6 586.32 989.86 588.45 990.81C590.58 991.71 592.85 992.15 595.25 992.15H612.64V1014.99H595.25L595.26 1015ZM653.27 1049.27V1026.17L666.04 1026.34C668.28 1026.34 670.44 1025.97 672.51 1025.25C674.58 1024.52 676.48 1023.51 678.22 1022.22C680.01 1020.93 681.58 1019.4 682.92 1017.6C684.26 1015.87 685.36 1013.96 686.2 1011.89C683.68 1012.96 681.1 1014.02 678.47 1015.08C675.89 1016.15 673.29 1016.68 670.66 1016.68C665.12 1016.68 659.91 1015.7 655.04 1013.74C650.17 1011.78 645.89 1009.01 642.19 1005.43C638.55 1001.79 635.67 997.39 633.54 992.24C631.47 987.03 630.43 981.21 630.43 974.77V925.05H653.27V974.77C653.27 977.96 653.72 980.76 654.61 983.17C655.56 985.52 656.82 987.51 658.39 989.13C659.96 990.7 661.78 991.87 663.85 992.66C665.98 993.44 668.25 993.84 670.65 993.84C673.05 993.84 675.21 993.31 677.29 992.24C679.42 991.12 681.27 989.66 682.83 987.87C684.4 986.08 685.63 984.06 686.53 981.82C687.42 979.53 687.87 977.17 687.87 974.77V925.05H710.97V1003.66C710.91 1009.99 709.68 1015.92 707.28 1021.47C704.87 1027.01 701.57 1031.85 697.37 1036C693.23 1040.14 688.38 1043.41 682.84 1045.82C677.3 1048.23 671.36 1049.43 665.04 1049.43L653.28 1049.27H653.27Z" fill="#CD4442"/>
<path d="M395 145H371L237 441L263.5 427L395 145Z" fill="#1686B8"/>
<path d="M360 378L340.5 388L211 681.5L240 649L360 378Z" fill="#1686B8"/>
<path d="M591.5 145H404.5L276 422L341 387.88L360.5 377.64L376 369.5L259 628L575.5 273.5L459 330L591.5 145Z" fill="#CD4442"/>
<path fill-rule="evenodd" clip-rule="evenodd" d="M395 790C613.15 790 790 613.15 790 395C790 176.85 613.15 0 395 0C176.85 0 0 176.85 0 395C0 613.15 176.85 790 395 790ZM395.52 770.43C603.15 770.43 771.47 602.11 771.47 394.48C771.47 186.85 603.14 18.54 395.52 18.54C187.9 18.54 19.57 186.86 19.57 394.48C19.57 602.1 187.89 770.43 395.52 770.43Z" fill="#1686B8"/>
<path fill-rule="evenodd" clip-rule="evenodd" d="M395 762C597.69 762 762 597.69 762 395C762 192.31 597.69 28 395 28C192.31 28 28 192.31 28 395C28 597.69 192.31 762 395 762ZM395.48 743.82C588.39 743.82 744.78 587.43 744.78 394.52C744.78 201.61 588.39 45.23 395.48 45.23C202.57 45.23 46.18 201.61 46.18 394.52C46.18 587.43 202.56 743.82 395.48 743.82Z" fill="#CD4442"/>
</g>
<defs>
<clipPath id="clip0_101_4">
<rect width="790" height="1049.43" fill="white"/>
</clipPath>
</defs>
</svg>
